<svg preserveAspectRatio="xMinYMid meet" x="25" y="0" id="logo" xmlns="http://www.w3.org/2000/svg" viewBox="0 0 458.74 128.52">
  <defs></defs>
  <path class="cls-1" d="M142.11 113.28h16.91V73.42h37.29V58.17h-37.29V30.24h40.88V14.99h-57.79v98.29zm68.81-72.53h16.91v72.53h-16.91zM0 39.08v80.09l16.53 9.35 16.4-9.35V77.91l35.37 20.5 16.91-9.74V69.45L49.46 49.2l35.75-20.63V9.61L68.3 0 0 39.08z"></path>
  <path class="cls-1" d="M408.66 178.06c-12.05 0-19.35-9.48-19.35-24.09s7.17-24.35 18.45-24.35c7.94 0 13.2 4 17.3 12.56l13.58-7.82c-5.89-12.17-16.78-18.45-30.5-18.45-21.4 0-36.39 15.63-36.39 38.06S387 191.9 408 191.9c14.6 0 25-6.66 32-20.5l-13.33-7.56c-5.33 9.86-10.32 14.22-18.01 14.22zM273.47 90a10.06 10.06 0 00-10.12 10.12 10.12 10.12 0 1020.24 0A10.06 10.06 0 00273.47 90zm213.35 25.91c-9.74 0-17.3 4-21.65 11.66V92.46h-16.28v98.29h16.28v-40.37c0-12.56 6.53-20.63 16.65-20.63s14.74 6.92 14.74 22.17v38.83h16.27V146c0-19.07-9.83-30.09-26.01-30.09zm-151.59 0c-9.74 0-17.42 4-22.55 11.66v-9.35H297.3v72.53h16.15v-40.37c0-12.56 6.41-20.63 16.79-20.63S345 136.67 345 151.92v38.83h16.15V146c-.03-19.07-9.77-30.09-25.92-30.09z" transform="translate(-54.09 -77.47)"></path>
</svg>